<svg width="40" height="40" viewBox="0 0 40 40" fill="none" xmlns="http://www.w3.org/2000/svg">
<path d="M20 0C16.0444 0 12.1776 1.17298 8.8886 3.37061C5.59962 5.56824 3.03617 8.69181 1.52242 12.3463C0.00866572 16.0009 -0.387401 20.0222 0.384303 23.9018C1.15601 27.7814 3.06082 31.3451 5.85787 34.1421C8.65492 36.9392 12.2186 38.844 16.0982 39.6157C19.9778 40.3874 23.9992 39.9913 27.6537 38.4776C31.3082 36.9638 34.4318 34.4004 36.6294 31.1114C38.827 27.8224 40 23.9556 40 20C39.9943 14.6974 37.8853 9.61368 34.1358 5.8642C30.3863 2.11471 25.3026 0.00573514 20 0ZM34.4117 11.6667H29.0433C27.8416 8.88164 26.2593 6.27681 24.3417 3.92667C28.5858 5.08155 32.2039 7.86245 34.4117 11.6667ZM27.5 20C27.4863 21.6969 27.2189 23.3822 26.7067 25H13.2933C12.7811 23.3822 12.5137 21.6969 12.5 20C12.5137 18.3031 12.7811 16.6178 13.2933 15H26.7067C27.2189 16.6178 27.4863 18.3031 27.5 20ZM14.63 28.3333H25.37C23.9554 31.1262 22.1469 33.7014 20 35.98C17.8523 33.702 16.0437 31.1267 14.63 28.3333ZM14.63 11.6667C16.0446 8.87379 17.8531 6.2986 20 4.02C22.1477 6.29795 23.9563 8.87326 25.37 11.6667H14.63ZM15.6667 3.92667C13.7461 6.27631 12.161 8.88116 10.9567 11.6667H5.58834C7.7981 7.86072 11.4194 5.07959 15.6667 3.92667ZM4.10168 15H9.83334C9.40127 16.6319 9.17727 18.3119 9.16668 20C9.17727 21.6881 9.40127 23.3681 9.83334 25H4.10168C3.07724 21.7454 3.07724 18.2546 4.10168 15ZM5.58834 28.3333H10.9567C12.161 31.1188 13.7461 33.7237 15.6667 36.0733C11.4194 34.9204 7.7981 32.1393 5.58834 28.3333ZM24.3417 36.0733C26.2593 33.7232 27.8416 31.1184 29.0433 28.3333H34.4117C32.2039 32.1376 28.5858 34.9185 24.3417 36.0733ZM35.8983 25H30.1667C30.5987 23.3681 30.8227 21.6881 30.8333 20C30.8227 18.3119 30.5987 16.6319 30.1667 15H35.895C36.9194 18.2546 36.9194 21.7454 35.895 25H35.8983Z" fill="white"/>
</svg>
