<svg width="40" height="40" viewBox="0 0 40 40" fill="none" xmlns="http://www.w3.org/2000/svg">
<path fill-rule="evenodd" clip-rule="evenodd" d="M19.9992 0C8.95463 0 0 9.17968 0 20.5056C0 29.5657 5.72976 37.2519 13.6761 39.9637C14.6761 40.1534 15.0427 39.5194 15.0427 38.9777C15.0427 38.489 15.0244 36.8742 15.016 35.1603C9.45294 36.4009 8.27799 32.7406 8.27799 32.7406C7.36803 30.3705 6.05808 29.74 6.05808 29.74C4.24316 28.4669 6.19474 28.4943 6.19474 28.4943C8.20299 28.6395 9.25961 30.608 9.25961 30.608C11.0429 33.742 13.9378 32.8363 15.0794 32.3117C15.2594 30.9857 15.7777 30.0817 16.3493 29.5691C11.9078 29.0513 7.23803 27.293 7.23803 19.4359C7.23803 17.1974 8.01967 15.3672 9.29961 13.9319C9.09129 13.4141 8.40632 11.3293 9.49294 8.5047C9.49294 8.5047 11.1729 7.95447 14.9944 10.6065C16.5893 10.152 18.2992 9.92471 19.9992 9.91617C21.6991 9.92471 23.4107 10.152 25.009 10.6065C28.8255 7.95276 30.5037 8.5047 30.5037 8.5047C31.592 11.3293 30.907 13.4141 30.7004 13.9319C31.982 15.3672 32.7586 17.1974 32.7586 19.4359C32.7586 27.3118 28.0805 29.0462 23.6273 29.5537C24.344 30.1894 24.984 31.4385 24.984 33.3507C24.984 36.095 24.9606 38.3028 24.9606 38.9777C24.9606 39.5229 25.3206 40.1636 26.3339 39.962C34.2769 37.2467 40 29.564 40 20.5073C39.9983 9.18138 31.0437 0 19.9992 0Z" fill="white"/>
<path d="M7.57467 29.4426C7.53134 29.5452 7.37468 29.5759 7.23135 29.5059C7.08635 29.4392 7.00469 29.2991 7.05136 29.1983C7.09469 29.094 7.25135 29.065 7.39634 29.1351C7.54134 29.2 7.62466 29.3401 7.57467 29.4426Z" fill="white"/>
<path d="M8.3846 30.3688C8.2896 30.4594 8.10294 30.4167 7.97628 30.2748C7.84462 30.1313 7.82129 29.9399 7.91795 29.8493C8.01628 29.7588 8.19627 29.8015 8.32793 29.945C8.4596 30.0869 8.48459 30.2765 8.3846 30.3688Z" fill="white"/>
<path d="M9.17301 31.5496C9.04968 31.6367 8.84969 31.5547 8.72636 31.3736C8.60303 31.1907 8.60303 30.972 8.72969 30.8849C8.85302 30.7977 9.05135 30.8763 9.17634 31.0574C9.298 31.242 9.298 31.4607 9.17301 31.5496Z" fill="white"/>
<path d="M10.2529 32.6911C10.1429 32.8158 9.90954 32.7816 9.73955 32.6125C9.56456 32.4467 9.51622 32.2126 9.62622 32.0879C9.73788 31.9631 9.97287 31.999 10.1445 32.1665C10.3179 32.3322 10.3695 32.568 10.2529 32.6911Z" fill="white"/>
<path d="M11.7445 33.3524C11.6961 33.513 11.4712 33.5865 11.2445 33.5181C11.0178 33.4481 10.8695 33.2601 10.9162 33.0978C10.9628 32.9354 11.1895 32.8602 11.4178 32.9337C11.6428 33.0021 11.7911 33.19 11.7445 33.3524Z" fill="white"/>
<path d="M13.3811 33.4754C13.3861 33.6446 13.1944 33.7847 12.9561 33.7881C12.7178 33.7932 12.5228 33.6565 12.5211 33.4908C12.5211 33.3199 12.7094 33.1815 12.9478 33.1764C13.1861 33.1712 13.3811 33.3079 13.3811 33.4754Z" fill="white"/>
<path d="M14.9043 33.2105C14.9327 33.3746 14.7677 33.5455 14.531 33.5899C14.2994 33.6343 14.0844 33.5318 14.0544 33.3677C14.0261 33.1986 14.1944 33.0294 14.426 32.985C14.661 32.9423 14.8743 33.0414 14.9043 33.2105Z" fill="white"/>
</svg>
