<svg width="37" height="40" viewBox="0 0 37 40" fill="none" xmlns="http://www.w3.org/2000/svg">
<g clip-path="url(#clip0_54_4)">
<path d="M23.3333 40C18.0308 39.9943 12.947 37.8853 9.19754 34.1358C5.44806 30.3863 3.33908 25.3026 3.33334 20C3.07834 5.07334 20.0517 -4.975 32.985 2.51501L35.5733 3.95167L33.0017 5.41834C21.835 11.565 22.6517 28.535 34.335 33.595L37.0367 34.8133L34.5917 36.49C31.2806 38.7724 27.3549 39.9964 23.3333 40ZM23.3333 3.33334C18.9146 3.33819 14.6781 5.0957 11.5536 8.22025C8.42904 11.3448 6.67153 15.5812 6.66668 20C6.40835 31.8617 19.605 40.3333 30.2583 35.1367C27.7642 33.4629 25.6967 31.2283 24.2212 28.612C22.7457 25.9957 21.9033 23.0702 21.7614 20.0699C21.6195 17.0695 22.182 14.0776 23.404 11.3337C24.6259 8.58979 26.4734 6.17009 28.7983 4.26834C27.0437 3.64575 25.1951 3.32947 23.3333 3.33334Z" fill="white"/>
</g>
<defs>
<clipPath id="clip0_54_4">
<rect width="40" height="40" fill="white"/>
</clipPath>
</defs>
</svg>
