<svg width="30" height="41" viewBox="0 0 30 41" fill="none" xmlns="http://www.w3.org/2000/svg">
<path d="M20.0173 40.0162C17.2154 40.0141 14.4451 39.4246 11.8852 38.2856C9.32533 37.1467 7.03267 35.4836 5.15522 33.4039C3.26359 31.3216 1.83638 28.861 0.968281 26.1851C0.100184 23.5092 -0.188949 20.6794 0.120064 17.8832C0.61825 13.5317 2.51659 9.45975 5.52929 6.28046C8.54199 3.10118 12.506 0.986639 16.8244 0.255198C19.6162 -0.176 22.4651 -0.0599131 25.2125 0.596988C25.9319 0.78182 26.5888 1.15553 27.1153 1.67945C27.6418 2.20337 28.0188 2.85846 28.2071 3.57694C28.3955 4.29542 28.3885 5.05119 28.1868 5.76603C27.985 6.48088 27.596 7.12884 27.0598 7.64287C19.4571 14.5887 20.1173 25.3893 28.4053 31.6682C28.9913 32.1282 29.4433 32.7368 29.7144 33.4307C29.9854 34.1246 30.0655 34.8784 29.9463 35.6138C29.8272 36.3492 29.5131 37.0391 29.0368 37.612C28.5606 38.1848 27.9395 38.6195 27.2382 38.8708C24.907 39.6325 22.4697 40.0191 20.0173 40.0162Z" fill="white"/>
</svg>
