<svg width="30" height="40" viewBox="0 0 30 40" fill="none" xmlns="http://www.w3.org/2000/svg">
<path d="M20.0064 39.9847C17.0893 39.9867 14.207 39.3504 11.5619 38.1203C8.91686 36.8902 6.57301 35.0961 4.69487 32.864C2.81673 30.632 1.44981 28.0159 0.690025 25.1995C-0.0697588 22.383 -0.203996 19.4344 0.296733 16.5606C0.797463 13.6868 1.92103 10.9574 3.58858 8.56385C5.25613 6.17035 7.42728 4.17076 9.94965 2.70541C12.472 1.24006 15.2845 0.344453 18.1897 0.0814328C21.095 -0.181587 24.0226 0.194355 26.7671 1.18288C27.5891 1.47781 28.3169 1.98784 28.8747 2.6598C29.4324 3.33176 29.7997 4.14104 29.9382 5.00326C30.0767 5.86549 29.9814 6.74909 29.6622 7.56193C29.3429 8.37478 28.8115 9.0871 28.1233 9.62464C19.6265 16.1555 19.6465 23.8509 28.1233 30.36C28.8114 30.8978 29.3427 31.6104 29.6617 32.4234C29.9807 33.2364 30.0757 34.1202 29.9369 34.9824C29.798 35.8447 29.4303 36.6539 28.8722 37.3257C28.3141 37.9975 27.586 38.5072 26.7638 38.8018C24.5946 39.5761 22.3096 39.9761 20.0064 39.9847ZM20.0064 4.99808C17.8268 4.99568 15.673 5.46845 13.6948 6.38348C11.7167 7.29852 9.96177 8.6338 8.55238 10.2963C7.14298 11.9589 6.11298 13.9087 5.5341 16.0099C4.95522 18.1112 4.8414 20.3134 5.20055 22.4631C5.5597 24.6129 6.38319 26.6585 7.61367 28.4574C8.84414 30.2564 10.452 31.7655 12.3253 32.8796C14.1986 33.9937 16.2922 34.6861 18.4604 34.9084C20.6285 35.1307 22.8191 34.8777 24.8795 34.1669C14.032 25.7285 14.0687 14.2262 24.8795 5.81777C23.3093 5.28621 21.6641 5.00948 20.0064 4.99808Z" fill="white"/>
</svg>
