<svg width="40" height="40" viewBox="0 0 40 40" fill="none" xmlns="http://www.w3.org/2000/svg">
<path d="M20 0C8.95403 0 0 8.95403 0 20C0 31.046 8.95403 40 20 40C31.046 40 40 31.046 40 20C40 8.95403 31.046 0 20 0ZM26.6363 28.8387C26.3218 29.1516 25.9919 29.4798 25.7242 29.7484C25.4831 29.9903 25.3129 30.2887 25.2266 30.6121C25.1048 31.0685 25.0065 31.5298 24.8419 31.9726L23.4395 35.7508C22.3298 35.9927 21.1815 36.129 20 36.129V33.921C20.1363 32.9032 19.3839 30.9968 18.175 29.7879C17.6911 29.304 17.4194 28.6476 17.4194 27.9629V25.3815C17.4194 24.4427 16.9137 23.5798 16.0919 23.1258C14.9331 22.4847 13.2847 21.5887 12.1556 21.0202C11.2298 20.554 10.3734 19.9605 9.60323 19.2661L9.53871 19.2081C8.98795 18.7109 8.49896 18.1494 8.08226 17.5355C7.32581 16.425 6.09355 14.5984 5.29274 13.4113C6.94355 9.74194 9.91855 6.79516 13.6153 5.19436L15.5516 6.1629C16.4097 6.59194 17.4194 5.96855 17.4194 5.00887V4.09758C18.0637 3.99355 18.7194 3.92742 19.3863 3.90242L21.6685 6.18468C22.1726 6.68871 22.1726 7.50564 21.6685 8.00968L21.2903 8.3871L20.4565 9.22097C20.2048 9.47258 20.2048 9.88145 20.4565 10.1331L20.8347 10.5113C21.0863 10.7629 21.0863 11.1718 20.8347 11.4234L20.1895 12.0685C20.0684 12.1894 19.9042 12.2573 19.7331 12.2573H19.0081C18.8403 12.2573 18.679 12.3226 18.5581 12.4403L17.7581 13.2185C17.66 13.314 17.5948 13.4382 17.5719 13.5732C17.549 13.7081 17.5696 13.8469 17.6306 13.9694L18.8879 16.4847C19.1024 16.9137 18.7903 17.4185 18.3113 17.4185H17.8565C17.7008 17.4185 17.5508 17.3621 17.4339 17.2605L16.6855 16.6105C16.5161 16.4636 16.3114 16.3633 16.0916 16.3194C15.8717 16.2756 15.6442 16.2897 15.4315 16.3605L12.9177 17.1984C12.7258 17.2624 12.5589 17.3851 12.4407 17.5493C12.3224 17.7134 12.2588 17.9106 12.2589 18.1129C12.2589 18.4782 12.4653 18.8113 12.7919 18.975L13.6855 19.4218C14.4444 19.8016 15.2815 19.9992 16.1298 19.9992C16.9782 19.9992 17.9516 22.2 18.7105 22.5798H24.0935C24.7782 22.5798 25.4339 22.8516 25.9185 23.3355L27.0226 24.4395C27.4838 24.9009 27.7429 25.5266 27.7427 26.179C27.7426 26.6734 27.6447 27.1628 27.4549 27.6193C27.265 28.0757 26.9868 28.4901 26.6363 28.8387ZM33.629 21.4718C33.1621 21.3548 32.7548 21.0685 32.4879 20.6677L31.0379 18.4927C30.8257 18.175 30.7125 17.8014 30.7125 17.4194C30.7125 17.0373 30.8257 16.6637 31.0379 16.346L32.6177 13.9766C32.8048 13.6968 33.0613 13.4694 33.3629 13.3194L34.4097 12.796C35.5 14.9669 36.129 17.4089 36.129 20C36.129 20.6992 36.0694 21.3839 35.9823 22.0597L33.629 21.4718Z" fill="white"/>
</svg>
