<svg width="45" height="34" viewBox="0 0 45 34" fill="none" xmlns="http://www.w3.org/2000/svg">
<path d="M44.3772 18.504L29.3765 33.3765C28.0371 34.7045 25.7156 33.7749 25.7156 31.8716V23.373H13.5721C12.3845 23.373 11.4291 22.4258 11.4291 21.2484V12.7498C11.4291 11.5724 12.3845 10.6251 13.5721 10.6251H25.7156V2.12653C25.7156 0.232053 28.0282 -0.706333 29.3765 0.621572L44.3772 15.4941C45.2076 16.3263 45.2076 17.6719 44.3772 18.504ZM17.1437 32.9339V29.3928C17.1437 28.8086 16.6615 28.3305 16.0722 28.3305H8.57185C6.99142 28.3305 5.71457 27.0646 5.71457 25.4976V8.50047C5.71457 6.93354 6.99142 5.66761 8.57185 5.66761H16.0722C16.6615 5.66761 17.1437 5.18956 17.1437 4.60528V1.06421C17.1437 0.479928 16.6615 0.00188284 16.0722 0.00188284H8.57185C3.83948 0.00188284 0 3.80854 0 8.50047V25.4976C0 30.1896 3.83948 33.9962 8.57185 33.9962H16.0722C16.6615 33.9962 17.1437 33.5182 17.1437 32.9339Z" fill="white"/>
</svg>
