<svg width="200" height="200" viewBox="0 0 200 200" fill="none" xmlns="http://www.w3.org/2000/svg">
<path d="M193.009 86.6725L169.654 70.8553L175.005 43.1264C176.02 37.9711 174.38 32.6596 170.67 28.9104C166.921 25.2002 161.609 23.5599 156.532 24.5753L128.842 29.9258L113.064 6.53193C107.167 -2.17731 92.7944 -2.17731 86.8971 6.53193L71.1189 29.9258L43.4681 24.5753C38.2738 23.5989 33.0014 25.2002 29.2912 28.9494C25.5809 32.6987 23.9406 37.9711 24.9561 43.1264L30.3066 70.8553L6.95177 86.6725C2.57762 89.6407 0 94.5226 0 99.795C0 105.067 2.61668 109.949 6.95177 112.878L30.3066 128.696L24.9561 156.425C23.9406 161.58 25.5809 166.891 29.2912 170.601C33.0014 174.312 38.2347 175.952 43.4681 174.937L71.1189 169.586L86.8971 192.98C89.8262 197.354 94.7471 199.971 99.9805 199.971C105.214 199.971 110.135 197.354 113.064 193.019L128.842 169.625L156.532 174.976C161.765 176.03 166.999 174.351 170.709 170.641C174.419 166.93 176.02 161.619 175.044 156.464L169.693 128.735L193.048 112.917C197.383 109.988 200 105.067 200 99.834C199.961 94.5226 197.383 89.6407 193.009 86.6725ZM148.916 120.104L155.79 155.722L120.25 148.848L99.9805 178.881L79.711 148.809L44.2101 155.682L51.0838 120.064L21.0896 99.7559L51.0838 79.4474L44.2101 43.8293L79.7501 50.703L99.9805 20.7088L120.25 50.742L155.79 43.8684L148.916 79.4474L178.91 99.7559L148.916 120.104ZM99.9805 59.3732C77.602 59.3732 59.3634 77.6118 59.3634 99.9902C59.3634 122.369 77.602 140.607 99.9805 140.607C122.359 140.607 140.598 122.369 140.598 99.9902C140.598 77.6118 122.359 59.3732 99.9805 59.3732ZM99.9805 121.861C87.9125 121.861 78.1097 112.058 78.1097 99.9902C78.1097 87.9223 87.9125 78.1195 99.9805 78.1195C112.048 78.1195 121.851 87.9223 121.851 99.9902C121.851 112.058 112.048 121.861 99.9805 121.861Z" fill="#FFD600"/>
</svg>
