<svg width="40" height="44" viewBox="0 0 40 44" fill="none" xmlns="http://www.w3.org/2000/svg">
<path d="M21.987 43.9741C28.7511 43.9741 34.9544 40.899 39.0651 35.8341C41.4931 32.8426 38.8454 28.4717 35.0929 29.1864C28.0203 30.5334 21.4994 25.1267 21.4994 17.9531C21.4994 13.7941 23.7377 10.0264 27.2911 8.00431C30.6188 6.1105 29.7818 1.06568 26.0009 0.367338C24.6769 0.123174 23.3334 0.000219554 21.987 0C9.84606 0 0 9.84048 0 21.987C0 34.128 9.84057 43.9741 21.987 43.9741ZM21.987 4.12257C23.1023 4.12257 24.1934 4.22572 25.2521 4.42128C20.5489 7.09777 17.3769 12.1547 17.3769 17.9531C17.3769 27.7311 26.2783 35.0617 35.8642 33.2361C32.5888 37.2718 27.5895 39.8515 21.987 39.8515C12.1208 39.8515 4.12257 31.8533 4.12257 21.987C4.12257 12.1208 12.1208 4.12257 21.987 4.12257Z" fill="white"/>
</svg>
